<?xml version="1.0" encoding="UTF-8"?><svg id="Layer_4" xmlns="http://www.w3.org/2000/svg" viewBox="0 0 170.01 123.17"><defs><style>.cls-1,.cls-2,.cls-3{fill:#414c41;}.cls-4{fill:#85a18a;stroke:#513d38;stroke-width:3px;}.cls-4,.cls-5{stroke-miterlimit:10;}.cls-2{font-size:8px;letter-spacing:.05em;}.cls-2,.cls-6,.cls-3{font-family:MetallophileSp8-Medium, 'Metallophile Sp8';}.cls-7{letter-spacing:.05em;}.cls-6{font-size:10px;}.cls-6,.cls-8{fill:#f4eddb;}.cls-9{fill:#703a85;}.cls-3{font-size:18px;letter-spacing:.05em;}.cls-5{fill:none;stroke:#7c9a82;}.cls-10{letter-spacing:.03em;}.cls-11{fill:#3b6b27;}</style></defs><polygon class="cls-4" points="168.22 39.18 168.22 121.43 2.99 121.43 2.99 39.18 85.61 2.82 168.22 39.18"/><polygon class="cls-5" points="168.22 39.18 168.22 121.43 2.99 121.43 2.99 39.18 85.61 2.82 168.22 39.18"/><g><path class="cls-1" d="M22.12,69.84c1.93-.28,2.78-1.2,2.56-2.77-.11-.82-.63-1.36-1.55-1.63-.49-.16-1.11-.29-1.86-.38-.75-.09-1.38-.2-1.89-.33-.51-.13-1.04-.34-1.58-.62-1.07-.57-1.73-1.59-1.97-3.08-.24-1.49,.1-2.74,1.02-3.76,.92-1.02,2.23-1.66,3.93-1.9,1.7-.25,3.33-.13,4.88,.34,.2,1.47,.3,2.21,.49,3.68-1,.2-1.5,.31-2.49,.52-.08-.57-.12-.85-.2-1.42-.03-.25-.09-.42-.17-.53-.23-.28-.83-.36-1.81-.22-.98,.14-1.68,.42-2.1,.83-.42,.41-.57,.98-.46,1.7,.08,.52,.35,.95,.8,1.28,.3,.22,.72,.38,1.26,.47,.54,.1,1.11,.19,1.72,.29,.61,.1,1.15,.22,1.63,.37,.48,.15,.99,.38,1.53,.69,1.09,.6,1.74,1.67,1.95,3.21,.2,1.54-.18,2.82-1.14,3.85-.96,1.03-2.32,1.67-4.09,1.93-1.77,.26-3.4,.17-4.91-.28-.24-1.54-.37-2.32-.61-3.86,.98-.22,1.47-.34,2.44-.55,.09,.6,.14,.89,.23,1.49,.04,.24,.1,.42,.18,.52,.08,.1,.3,.18,.64,.24,.34,.06,.87,.03,1.58-.07Z"/><path class="cls-1" d="M32.22,67.8c-.56-4.52-.84-6.77-1.39-11.29-.57,.04-.85,.06-1.42,.1-.11-.83-.16-1.25-.26-2.09,2.39-.3,3.59-.45,5.99-.72l.23,1.99c-.32,.07-.49,.1-.81,.17-.48,.1-.68,.39-.63,.87,.25,2.16,.38,3.24,.63,5.4,1.72-2.67,2.59-4,4.36-6.65-.56,.03-.84,.04-1.4,.07-.09-.84-.14-1.25-.23-2.09,2.34-.25,3.51-.37,5.85-.59l.19,1.99c-.33,.06-.49,.09-.81,.15-.31,.06-.62,.33-.93,.79-1.24,1.85-1.85,2.78-3.07,4.64,2.05,2.68,3.06,4.02,5.05,6.72,.52-.02,.77-.03,1.29-.05,.08,.84,.12,1.26,.2,2.09-2.47,.23-3.7,.36-6.17,.63-.09-.8-.13-1.19-.22-1.99,.3-.06,.45-.09,.74-.15,.32-.07,.47-.22,.44-.44-.01-.1-.06-.23-.16-.38-1.14-1.58-1.71-2.37-2.87-3.94-.74,1.14-1.11,1.71-1.85,2.85,.11,.91,.16,1.37,.27,2.28,.55-.04,.83-.05,1.39-.09l.24,2.09c-2.31,.26-3.47,.4-5.77,.69-.1-.79-.15-1.19-.25-1.99,.31-.07,.47-.1,.79-.17,.24-.06,.41-.15,.51-.27,.1-.12,.13-.33,.09-.62Z"/><path class="cls-1" d="M53.2,51.84c1.98-.14,3.69,.44,5.1,1.74,1.42,1.3,2.2,3.37,2.36,6.21,.16,2.84-.36,5.02-1.56,6.56-1.2,1.54-2.87,2.37-5.05,2.53-2.18,.16-3.94-.42-5.31-1.76-1.37-1.34-2.18-3.38-2.43-6.14-.14-1.51-.03-2.86,.31-4.04,.34-1.18,.86-2.12,1.54-2.8,1.37-1.39,3.06-2.16,5.04-2.31Zm-3.83,8.75c.34,4.07,1.9,5.99,4.68,5.79,1.49-.11,2.48-.82,3.01-2.09,.47-1.13,.67-2.5,.57-4.1-.09-1.43-.42-2.73-1-3.9-.32-.64-.79-1.13-1.38-1.47-.6-.34-1.36-.48-2.27-.41-.91,.07-1.68,.42-2.28,1.07-.61,.64-1,1.4-1.18,2.25-.18,.86-.22,1.81-.14,2.86Z"/><path class="cls-1" d="M76.73,61.72c.04,1.79,.06,2.68,.1,4.47-1.48,1.09-3.32,1.66-5.55,1.74-2.22,.08-3.98-.56-5.3-1.93-1.32-1.37-2.06-3.44-2.2-6.24-.06-1.23,.04-2.35,.32-3.36,.27-1,.66-1.84,1.15-2.51,.49-.67,1.08-1.23,1.76-1.69,1.3-.83,2.81-1.28,4.51-1.33,1.7-.05,3.29,.24,4.78,.89,.04,1.68,.06,2.52,.09,4.2-1.01,.09-1.52,.14-2.53,.24-.02-.77-.03-1.16-.05-1.93,0-.25-.05-.43-.11-.54-.19-.31-.95-.44-2.29-.4-3.21,.1-4.73,2.15-4.56,6.09,.18,4.15,1.68,6.16,4.5,6.06,1.12-.04,1.97-.26,2.56-.67l-.1-3.68h-.02c-.76,0-1.13-.01-1.89-.02-.03-.84-.04-1.26-.07-2.1,2.45-.08,3.68-.11,6.14-.16,.01,.79,.02,1.19,.04,1.98-.23,.02-.34,.04-.56,.06-.26,.04-.44,.11-.55,.22-.1,.11-.15,.31-.15,.61Z"/><path class="cls-1" d="M85.63,65.16c1.94,0,2.92-.78,2.93-2.37,0-.82-.42-1.44-1.29-1.84-.46-.23-1.05-.45-1.78-.64-.73-.2-1.34-.4-1.82-.6-.48-.2-.98-.48-1.47-.84-.98-.72-1.48-1.83-1.5-3.34-.02-1.51,.49-2.7,1.55-3.58,1.05-.88,2.44-1.32,4.16-1.32,1.72,0,3.31,.35,4.77,1.04-.02,1.48-.02,2.22-.04,3.71-1.01,.06-1.52,.09-2.54,.15,0-.57,0-.86,0-1.43,0-.25-.03-.43-.1-.54-.18-.31-.77-.47-1.76-.48-.99,0-1.72,.17-2.2,.52-.47,.35-.71,.89-.7,1.61,0,.53,.2,.99,.6,1.38,.27,.26,.66,.48,1.18,.65s1.07,.35,1.66,.53c.58,.18,1.1,.38,1.55,.6,.45,.22,.92,.52,1.41,.9,.99,.75,1.48,1.9,1.46,3.45-.02,1.55-.58,2.76-1.68,3.64-1.1,.88-2.53,1.32-4.31,1.32-1.78,0-3.38-.32-4.81-.98-.02-1.56-.03-2.34-.05-3.91,1-.08,1.49-.12,2.49-.2,0,.6,0,.9,0,1.51,0,.25,.04,.43,.1,.54,.07,.12,.26,.22,.6,.33,.33,.11,.86,.16,1.57,.16Z"/><path class="cls-1" d="M95.89,64.6c.1-4.55,.15-6.82,.25-11.37-.57-.04-.85-.06-1.42-.1,.02-.84,.02-1.26,.04-2.1,2.41,.05,3.61,.08,6.02,.15-.03,.8-.04,1.2-.06,2-.33,.02-.5,.03-.83,.05-.49,.03-.73,.29-.75,.77-.06,2.17-.09,3.26-.16,5.44,2.08-2.39,3.13-3.58,5.27-5.95-.56-.05-.84-.08-1.39-.13,.03-.84,.05-1.26,.08-2.1,2.35,.09,3.52,.14,5.87,.26-.04,.8-.06,1.2-.1,2-.33,.01-.5,.02-.83,.03-.32,.02-.66,.23-1.03,.64-1.49,1.65-2.23,2.48-3.7,4.15,1.64,2.94,2.44,4.42,4.02,7.37,.51,.05,.77,.08,1.28,.14-.04,.84-.06,1.26-.11,2.1-2.47-.13-3.71-.18-6.19-.27,.03-.8,.04-1.2,.07-2,.3-.02,.45-.03,.76-.05,.32-.02,.49-.15,.5-.38,0-.1-.03-.23-.11-.4-.9-1.73-1.35-2.59-2.27-4.31-.9,1.02-1.35,1.53-2.24,2.55-.03,.92-.04,1.38-.07,2.3,.55,.05,.83,.07,1.38,.12l-.07,2.1c-2.32-.07-3.48-.1-5.8-.15,.02-.8,.02-1.2,.04-2,.32-.02,.48-.04,.8-.06,.24-.03,.42-.09,.54-.2,.12-.1,.18-.31,.18-.6Z"/><path class="cls-1" d="M118.93,51.83c1.98,.14,3.58,.97,4.8,2.46,1.21,1.49,1.69,3.66,1.44,6.49-.25,2.83-1.08,4.92-2.49,6.26-1.41,1.35-3.19,1.93-5.37,1.78-2.18-.16-3.84-.99-5-2.51-1.16-1.52-1.67-3.66-1.52-6.43,.08-1.51,.38-2.83,.89-3.95,.51-1.12,1.15-1.97,1.92-2.55,1.56-1.18,3.34-1.7,5.32-1.55Zm-5.05,8.11c-.25,4.08,1.01,6.2,3.79,6.4,1.49,.11,2.57-.45,3.28-1.64,.62-1.05,1.03-2.38,1.16-3.98,.12-1.43-.02-2.76-.42-4-.23-.68-.62-1.23-1.16-1.65-.54-.42-1.27-.67-2.19-.73-.91-.07-1.72,.18-2.41,.73-.69,.55-1.19,1.24-1.49,2.06-.3,.82-.48,1.76-.55,2.82Z"/><path class="cls-1" d="M132.16,67.02c.47-4.47,.7-6.7,1.17-11.16-.78-.08-1.16-.12-1.94-.2-.38-.04-.6,.2-.65,.71-.05,.46-.07,.69-.11,1.16-1-.17-1.5-.25-2.51-.42,.16-1.67,.24-2.51,.39-4.18,5.23,.49,7.84,.77,13.06,1.42-.21,1.67-.31,2.5-.51,4.17-1.02-.06-1.53-.08-2.54-.13,.05-.46,.08-.69,.14-1.15,.03-.28,.01-.48-.06-.6-.07-.12-.26-.2-.58-.24-.68-.08-1.01-.12-1.69-.19-.53,4.7-.79,7.05-1.31,11.75,.76,.11,1.14,.17,1.9,.29-.1,.84-.15,1.25-.24,2.09-2.71-.32-4.07-.46-6.79-.74,.08-.8,.12-1.2,.2-1.99,.52,.02,.77,.03,1.29,.06,.47,0,.73-.21,.77-.62Z"/><path class="cls-1" d="M147.3,68.88c.62-4.45,.94-6.67,1.56-11.12-.77-.11-1.16-.16-1.93-.27-.38-.05-.6,.18-.67,.68-.06,.46-.09,.69-.15,1.15-1-.2-1.5-.3-2.5-.5,.21-1.67,.32-2.5,.54-4.17,5.22,.67,7.82,1.05,13.02,1.87-.26,1.66-.39,2.49-.66,4.15-1.02-.09-1.52-.13-2.54-.22,.07-.46,.11-.69,.18-1.15,.04-.28,.03-.48-.03-.61-.07-.13-.25-.21-.57-.26-.67-.1-1.01-.15-1.68-.25-.69,4.68-1.03,7.02-1.72,11.69,.76,.14,1.14,.21,1.89,.36-.13,.83-.19,1.25-.31,2.08-2.7-.41-4.06-.6-6.77-.97,.11-.79,.16-1.19,.27-1.98,.52,.04,.77,.06,1.29,.1,.47,.02,.74-.18,.8-.59Z"/></g><g><path class="cls-8" d="M22.12,68.68c1.93-.28,2.78-1.2,2.56-2.77-.11-.82-.63-1.36-1.55-1.63-.49-.16-1.11-.29-1.86-.38-.75-.09-1.38-.2-1.89-.33-.51-.13-1.04-.34-1.58-.62-1.07-.57-1.73-1.59-1.97-3.08-.24-1.49,.1-2.74,1.02-3.76,.92-1.02,2.23-1.66,3.93-1.9,1.7-.25,3.33-.13,4.88,.34,.2,1.47,.3,2.21,.49,3.68-1,.2-1.5,.31-2.49,.52-.08-.57-.12-.85-.2-1.42-.03-.25-.09-.42-.17-.53-.23-.28-.83-.36-1.81-.22-.98,.14-1.68,.42-2.1,.83-.42,.41-.57,.98-.46,1.7,.08,.52,.35,.95,.8,1.28,.3,.22,.72,.38,1.26,.47,.54,.1,1.11,.19,1.72,.29,.61,.1,1.15,.22,1.63,.37,.48,.15,.99,.38,1.53,.69,1.09,.6,1.74,1.67,1.95,3.21,.2,1.54-.18,2.82-1.14,3.85-.96,1.03-2.32,1.67-4.09,1.93-1.77,.26-3.4,.17-4.91-.28-.24-1.54-.37-2.32-.61-3.86,.98-.22,1.47-.34,2.44-.55,.09,.6,.14,.89,.23,1.49,.04,.24,.1,.42,.18,.52,.08,.1,.3,.18,.64,.24,.34,.06,.87,.03,1.58-.07Z"/><path class="cls-8" d="M32.22,66.64c-.56-4.52-.84-6.77-1.39-11.29-.57,.04-.85,.06-1.42,.1-.11-.83-.16-1.25-.26-2.09,2.39-.3,3.59-.45,5.99-.72l.23,1.99c-.32,.07-.49,.1-.81,.17-.48,.1-.68,.39-.63,.87,.25,2.16,.38,3.24,.63,5.4,1.72-2.67,2.59-4,4.36-6.65-.56,.03-.84,.04-1.4,.07-.09-.84-.14-1.25-.23-2.09,2.34-.25,3.51-.37,5.85-.59l.19,1.99c-.33,.06-.49,.09-.81,.15-.31,.06-.62,.33-.93,.79-1.24,1.85-1.85,2.78-3.07,4.64,2.05,2.68,3.06,4.02,5.05,6.72,.52-.02,.77-.03,1.29-.05,.08,.84,.12,1.26,.2,2.09-2.47,.23-3.7,.36-6.17,.63-.09-.8-.13-1.19-.22-1.99,.3-.06,.45-.09,.74-.15,.32-.07,.47-.22,.44-.44-.01-.1-.06-.23-.16-.38-1.14-1.58-1.71-2.37-2.87-3.94-.74,1.14-1.11,1.71-1.85,2.85,.11,.91,.16,1.37,.27,2.28,.55-.04,.83-.05,1.39-.09l.24,2.09c-2.31,.26-3.47,.4-5.77,.69-.1-.79-.15-1.19-.25-1.99,.31-.07,.47-.1,.79-.17,.24-.06,.41-.15,.51-.27,.1-.12,.13-.33,.09-.62Z"/><path class="cls-8" d="M53.2,50.68c1.98-.14,3.69,.44,5.1,1.74,1.42,1.3,2.2,3.37,2.36,6.21,.16,2.84-.36,5.02-1.56,6.56-1.2,1.54-2.87,2.37-5.05,2.53-2.18,.16-3.94-.42-5.31-1.76-1.37-1.34-2.18-3.38-2.43-6.14-.14-1.51-.03-2.86,.31-4.04,.34-1.18,.86-2.12,1.54-2.8,1.37-1.39,3.06-2.16,5.04-2.31Zm-3.83,8.75c.34,4.07,1.9,5.99,4.68,5.79,1.49-.11,2.48-.82,3.01-2.09,.47-1.13,.67-2.5,.57-4.1-.09-1.43-.42-2.73-1-3.9-.32-.64-.79-1.13-1.38-1.47-.6-.34-1.36-.48-2.27-.41-.91,.07-1.68,.42-2.28,1.07-.61,.64-1,1.4-1.18,2.25-.18,.86-.22,1.81-.14,2.86Z"/><path class="cls-8" d="M76.73,60.56c.04,1.79,.06,2.68,.1,4.47-1.48,1.09-3.32,1.66-5.55,1.74-2.22,.08-3.98-.56-5.3-1.93-1.32-1.37-2.06-3.44-2.2-6.24-.06-1.23,.04-2.35,.32-3.36,.27-1,.66-1.84,1.15-2.51,.49-.67,1.08-1.23,1.76-1.69,1.3-.83,2.81-1.28,4.51-1.33,1.7-.05,3.29,.24,4.78,.89,.04,1.68,.06,2.52,.09,4.2-1.01,.09-1.52,.14-2.53,.24-.02-.77-.03-1.16-.05-1.93,0-.25-.05-.43-.11-.54-.19-.31-.95-.44-2.29-.4-3.21,.1-4.73,2.15-4.56,6.09,.18,4.15,1.68,6.16,4.5,6.06,1.12-.04,1.97-.26,2.56-.67l-.1-3.68h-.02c-.76,0-1.13-.01-1.89-.02-.03-.84-.04-1.26-.07-2.1,2.45-.08,3.68-.11,6.14-.16,.01,.79,.02,1.19,.04,1.98-.23,.02-.34,.04-.56,.06-.26,.04-.44,.11-.55,.22-.1,.11-.15,.31-.15,.61Z"/><path class="cls-8" d="M85.63,63.99c1.94,0,2.92-.78,2.93-2.37,0-.82-.42-1.44-1.29-1.84-.46-.23-1.05-.45-1.78-.64-.73-.2-1.34-.4-1.82-.6-.48-.2-.98-.48-1.47-.84-.98-.72-1.48-1.83-1.5-3.34-.02-1.51,.49-2.7,1.55-3.58,1.05-.88,2.44-1.32,4.16-1.32,1.72,0,3.31,.35,4.77,1.04-.02,1.48-.02,2.22-.04,3.71-1.01,.06-1.52,.09-2.54,.15,0-.57,0-.86,0-1.43,0-.25-.03-.43-.1-.54-.18-.31-.77-.47-1.76-.48-.99,0-1.72,.17-2.2,.52-.47,.35-.71,.89-.7,1.61,0,.53,.2,.99,.6,1.38,.27,.26,.66,.48,1.18,.65s1.07,.35,1.66,.53c.58,.18,1.1,.38,1.55,.6,.45,.22,.92,.52,1.41,.9,.99,.75,1.48,1.9,1.46,3.45-.02,1.55-.58,2.76-1.68,3.64-1.1,.88-2.53,1.32-4.31,1.32-1.78,0-3.38-.32-4.81-.98-.02-1.56-.03-2.34-.05-3.91,1-.08,1.49-.12,2.49-.2,0,.6,0,.9,0,1.51,0,.25,.04,.43,.1,.54,.07,.12,.26,.22,.6,.33,.33,.11,.86,.16,1.57,.16Z"/><path class="cls-8" d="M95.89,63.43c.1-4.55,.15-6.82,.25-11.37-.57-.04-.85-.06-1.42-.1,.02-.84,.02-1.26,.04-2.1,2.41,.05,3.61,.08,6.02,.15-.03,.8-.04,1.2-.06,2-.33,.02-.5,.03-.83,.05-.49,.03-.73,.29-.75,.77-.06,2.17-.09,3.26-.16,5.44,2.08-2.39,3.13-3.58,5.27-5.95-.56-.05-.84-.08-1.39-.13,.03-.84,.05-1.26,.08-2.1,2.35,.09,3.52,.14,5.87,.26-.04,.8-.06,1.2-.1,2-.33,.01-.5,.02-.83,.03-.32,.02-.66,.23-1.03,.64-1.49,1.65-2.23,2.48-3.7,4.15,1.64,2.94,2.44,4.42,4.02,7.37,.51,.05,.77,.08,1.28,.14-.04,.84-.06,1.26-.11,2.1-2.47-.13-3.71-.18-6.19-.27,.03-.8,.04-1.2,.07-2,.3-.02,.45-.03,.76-.05,.32-.02,.49-.15,.5-.38,0-.1-.03-.23-.11-.4-.9-1.73-1.35-2.59-2.27-4.31-.9,1.02-1.35,1.53-2.24,2.55-.03,.92-.04,1.38-.07,2.3,.55,.05,.83,.07,1.38,.12l-.07,2.1c-2.32-.07-3.48-.1-5.8-.15,.02-.8,.02-1.2,.04-2,.32-.02,.48-.04,.8-.06,.24-.03,.42-.09,.54-.2,.12-.1,.18-.31,.18-.6Z"/><path class="cls-8" d="M118.93,50.67c1.98,.14,3.58,.97,4.8,2.46,1.21,1.49,1.69,3.66,1.44,6.49-.25,2.83-1.08,4.92-2.49,6.26-1.41,1.35-3.19,1.93-5.37,1.78-2.18-.16-3.84-.99-5-2.51-1.16-1.52-1.67-3.66-1.52-6.43,.08-1.51,.38-2.83,.89-3.95,.51-1.12,1.15-1.97,1.92-2.55,1.56-1.18,3.34-1.7,5.32-1.55Zm-5.05,8.11c-.25,4.08,1.01,6.2,3.79,6.4,1.49,.11,2.57-.45,3.28-1.64,.62-1.05,1.03-2.38,1.16-3.98,.12-1.43-.02-2.76-.42-4-.23-.68-.62-1.23-1.16-1.65-.54-.42-1.27-.67-2.19-.73-.91-.07-1.72,.18-2.41,.73-.69,.55-1.19,1.24-1.49,2.06-.3,.82-.48,1.76-.55,2.82Z"/><path class="cls-8" d="M132.16,65.86c.47-4.47,.7-6.7,1.17-11.16-.78-.08-1.16-.12-1.94-.2-.38-.04-.6,.2-.65,.71-.05,.46-.07,.69-.11,1.16-1-.17-1.5-.25-2.51-.42,.16-1.67,.24-2.51,.39-4.18,5.23,.49,7.84,.77,13.06,1.42-.21,1.67-.31,2.5-.51,4.17-1.02-.06-1.53-.08-2.54-.13,.05-.46,.08-.69,.14-1.15,.03-.28,.01-.48-.06-.6-.07-.12-.26-.2-.58-.24-.68-.08-1.01-.12-1.69-.19-.53,4.7-.79,7.05-1.31,11.75,.76,.11,1.14,.17,1.9,.29-.1,.84-.15,1.25-.24,2.09-2.71-.32-4.07-.46-6.79-.74,.08-.8,.12-1.2,.2-1.99,.52,.02,.77,.03,1.29,.06,.47,0,.73-.21,.77-.62Z"/><path class="cls-8" d="M147.3,67.72c.62-4.45,.94-6.67,1.56-11.12-.77-.11-1.16-.16-1.93-.27-.38-.05-.6,.18-.67,.68-.06,.46-.09,.69-.15,1.15-1-.2-1.5-.3-2.5-.5,.21-1.67,.32-2.5,.54-4.17,5.22,.67,7.82,1.05,13.02,1.87-.26,1.66-.39,2.49-.66,4.15-1.02-.09-1.52-.13-2.54-.22,.07-.46,.11-.69,.18-1.15,.04-.28,.03-.48-.03-.61-.07-.13-.25-.21-.57-.26-.67-.1-1.01-.15-1.68-.25-.69,4.68-1.03,7.02-1.72,11.69,.76,.14,1.14,.21,1.89,.36-.13,.83-.19,1.25-.31,2.08-2.7-.41-4.06-.6-6.77-.97,.11-.79,.16-1.19,.27-1.98,.52,.04,.77,.06,1.29,.1,.47,.02,.74-.18,.8-.59Z"/></g><g><path class="cls-11" d="M101.14,15.35c-.17,.23-3.21,4.37-7.94,9.5-.25-.76-.6-1.47-1.04-2.12,2.81-2.65,5.86-5.24,8.98-7.38Z"/><path class="cls-11" d="M108.12,28.26s-4.99,.79-11.95,1.09c-.6-.86-1.32-1.62-2.14-2.26,4.61,.03,9.55,.33,14.09,1.17Z"/><path class="cls-9" d="M91.64,25.74c-.63-.25-1.3-.44-1.99-.56-.53-.08-1.07-.13-1.63-.13-1.16,0-2.28,.2-3.32,.58-1.54-1.33-3.45-2.24-5.54-2.58,1.32-1.58,3.31-2.58,5.53-2.58,2.63,0,4.93,1.4,6.19,3.5,.33,.55,.59,1.14,.76,1.77Z"/><path class="cls-9" d="M96.13,34.9c0,4.48-3.63,8.11-8.11,8.11-1.06,0-2.07-.2-3-.58,1.85-1.7,3.13-4.03,3.5-6.64,.05-.34,.09-.68,.11-1.03,.01-.19,.01-.39,.01-.58,0-.15,0-.3-.01-.45-.05-1.23-.29-2.41-.7-3.5-.11-.28-.22-.54-.34-.81-.22-.46-.47-.91-.75-1.33-.17-.28-.36-.55-.56-.8-.06-.09-.13-.17-.2-.25,.62-.16,1.27-.24,1.94-.24h.05c.78,0,1.53,.12,2.24,.33,.19,.05,.38,.12,.56,.18,.36,.14,.7,.29,1.03,.48,.3,.16,.58,.34,.86,.54,.28,.2,.55,.42,.81,.65,.15,.15,.29,.3,.44,.45,1.31,1.45,2.12,3.36,2.12,5.47Z"/><path class="cls-9" d="M86.52,31.55c-.21-.75-.52-1.46-.9-2.12-.02-.03-.03-.06-.05-.09-.35-.59-.77-1.15-1.24-1.65-.09-.09-.17-.18-.26-.27-.13-.13-.26-.25-.4-.37-.23-.21-.48-.41-.73-.58-1.37-1-3.01-1.63-4.8-1.78-.26-.02-.52-.03-.78-.03h-.17c-.32,.01-.64,.03-.95,.07-4.72,.55-8.4,4.57-8.4,9.45,0,5.26,4.27,9.52,9.52,9.52,1.62,0,3.15-.4,4.49-1.12,.28-.15,.55-.31,.81-.48,.25-.17,.5-.36,.73-.54,1.58-1.3,2.73-3.08,3.23-5.12,.07-.31,.13-.62,.18-.94,.04-.31,.07-.62,.08-.94,.01-.13,.01-.25,.01-.38,0-.91-.13-1.8-.37-2.63Zm-6.58,3.93l-.89-.35-.88-.34-1.82-.7-1.17-.45-1.17,.45-3.7,1.43,3.08-2.49,.98-.79,.23-1.49,.58-3.66,.58,3.66,.23,1.49,.98,.79,1.24,1,.83,.67h0l.9,.73,.11,.09-.11-.04Z"/></g><text class="cls-6" transform="translate(59.08 117.61)"><tspan class="cls-7" x="0" y="0">S</tspan><tspan class="cls-10" x="5.22" y="0">w</tspan><tspan class="cls-7" x="12.11" y="0">edi</tspan><tspan class="cls-10" x="26" y="0">s</tspan><tspan class="cls-7" x="29.56" y="0">h G</tspan><tspan class="cls-10" x="45.52" y="0">i</tspan><tspan class="cls-7" x="48.22" y="0">n</tspan></text><text class="cls-3" transform="translate(48.08 88.31)"><tspan x="0" y="0">New Leaf</tspan></text><text class="cls-2" transform="translate(7.22 117.2)"><tspan x="0" y="0">43%</tspan></text><text class="cls-2" transform="translate(143.3 117.2)"><tspan x="0" y="0">500ml</tspan></text></svg>